# This file uses centimeters as units for non-parametric coordinates.

mtllib Crystal.mtl
g default
v -0.011967 -0.337007 0.854862
v 0.883797 -0.555298 0.010791
v -0.883797 -0.567346 -0.010791
v 0.011967 -0.785637 -0.854862
v -0.029432 4.499178 -0.414395
v 0.866332 4.280887 -1.258466
v -0.901262 4.268839 -1.280048
v -0.005498 4.050547 -2.124119
v -0.021831 5.483909 -1.586571
v 0.056599 -0.256517 0.636103
v -0.635598 -0.262570 -0.086601
v 0.635598 -0.860074 0.086601
v -0.056599 -0.866127 -0.636103
v 1.786791 2.936365 -1.047794
v 1.094595 2.930312 -1.770497
v 2.365790 2.332808 -1.597296
v 1.673594 2.326755 -2.320000
v 2.162740 3.429781 -2.104871
v 0.043313 -0.564992 0.751530
v -0.706439 -0.304671 0.041968
v 0.706439 -0.817973 -0.041968
v -0.043313 -0.557652 -0.751530
v 1.493883 3.438221 0.687479
v 0.744131 3.698541 -0.022083
v 2.157009 3.185240 -0.106018
v 1.407257 3.445561 -0.815580
v 1.813213 4.442694 -0.080063
v 0.047541 -0.505318 0.616312
v -0.436745 -0.120356 -0.006381
v 0.436745 -1.002288 0.006380
v -0.047541 -0.617326 -0.616312
v 2.527746 1.945151 0.202320
v 2.043460 2.330113 -0.420372
v 2.916949 1.448181 -0.407611
v 2.432663 1.833143 -1.030304
v 3.100256 2.501765 -0.517490
v -0.043313 -0.564992 0.751530
v 0.706439 -0.304671 0.041967
v -0.706439 -0.817973 -0.041968
v 0.043313 -0.557652 -0.751530
v -1.493883 3.438221 0.687479
v -0.744132 3.698541 -0.022083
v -2.157009 3.185240 -0.106018
v -1.407257 3.445560 -0.815580
v -1.813213 4.442694 -0.080063
v -0.056599 -0.256517 0.636103
v 0.635598 -0.262570 -0.086601
v -0.635598 -0.860074 0.086601
v 0.056599 -0.866127 -0.636103
v -1.786791 2.936364 -1.047794
v -1.094594 2.930311 -1.770497
v -2.365790 2.332808 -1.597296
v -1.673593 2.326754 -2.319999
v -2.162740 3.429780 -2.104871
v -0.047541 -0.505318 0.616312
v 0.436745 -0.120356 -0.006381
v -0.436745 -1.002288 0.006380
v 0.047541 -0.617326 -0.616312
v -2.527746 1.945151 0.202321
v -2.043460 2.330113 -0.420372
v -2.916949 1.448181 -0.407611
v -2.432663 1.833143 -1.030304
v -3.100255 2.501765 -0.517490
v -0.074046 -0.854610 0.472430
v 0.473516 -0.344707 0.208692
v -0.473516 -0.777936 -0.208692
v 0.074046 -0.268034 -0.472430
v -1.723205 1.557037 1.711120
v -1.175644 2.066940 1.447382
v -2.122675 1.633711 1.029998
v -1.575113 2.143614 0.766259
v -2.061449 2.453237 1.548362
v 0.235673 -0.767597 0.794014
v -0.508936 -0.668460 0.538843
v 0.508936 -0.454184 0.118379
v -0.235673 -0.355047 -0.136792
v 0.170162 2.120522 2.107254
v -0.574447 2.219659 1.852083
v 0.443424 2.433935 1.431619
v -0.301185 2.533072 1.176448
v -0.081889 3.048827 1.970161
v 0.074046 -0.854610 0.472430
v -0.473516 -0.344707 0.208692
v 0.473516 -0.777936 -0.208692
v -0.074046 -0.268033 -0.472430
v 1.723206 1.557037 1.711120
v 1.175644 2.066940 1.447382
v 2.122675 1.633711 1.029998
v 1.575114 2.143614 0.766259
v 2.061449 2.453237 1.548362
v -0.138268 -0.197052 -0.101131
v -0.506157 -0.669086 -0.540145
v 0.506157 -0.453558 -0.365353
v 0.138268 -0.925592 -0.804366
v -0.203541 1.851480 -2.249043
v -0.571429 1.379446 -2.688056
v 0.440885 1.594974 -2.513264
v 0.072996 1.122939 -2.952278
v -0.081590 1.999343 -3.137638
vt 1.000000 0.753305
vt 1.000000 0.004455
vt 0.000000 0.004455
vt 0.000000 0.753305
vt 1.000000 0.753305
vt 1.000000 0.004455
vt 0.000000 0.004455
vt 0.000000 0.753305
vt 1.000000 0.753305
vt 1.000000 0.004455
vt 0.000000 0.004455
vt 0.000000 0.753305
vt 1.000000 0.753305
vt 1.000000 0.004455
vt 0.000000 0.004455
vt 0.000000 0.753305
vt 0.500000 0.999968
vt 1.000000 0.753305
vt 0.000000 0.753305
vt 0.000000 0.004455
vt 1.000000 0.004455
vt 1.000000 0.753305
vt 0.000000 0.753305
vt 0.000000 0.004455
vt 1.000000 0.004455
vt 1.000000 0.753305
vt 0.000000 0.753305
vt 1.000000 0.004455
vt 0.000000 0.004455
vt 1.000000 0.753305
vt 0.000000 0.753305
vt 1.000000 0.004455
vt 0.000000 0.004455
vt 0.500000 0.999968
vt 1.000000 0.753305
vt 0.000000 0.753305
vt 1.000000 0.004455
vt 0.000000 0.004455
vt 1.000000 0.753305
vt 0.000000 0.753305
vt 0.000000 0.004455
vt 1.000000 0.004455
vt 1.000000 0.753305
vt 0.000000 0.753305
vt 0.000000 0.004455
vt 1.000000 0.004455
vt 1.000000 0.753305
vt 0.000000 0.753305
vt 1.000000 0.004455
vt 0.000000 0.004455
vt 0.500000 0.999968
vt 1.000000 0.753305
vt 0.000000 0.753305
vt 0.000000 0.004455
vt 1.000000 0.004455
vt 1.000000 0.753305
vt 0.000000 0.753305
vt 1.000000 0.004455
vt 0.000000 0.004455
vt 1.000000 0.753305
vt 0.000000 0.753305
vt 1.000000 0.004455
vt 0.000000 0.004455
vt 1.000000 0.753305
vt 0.000000 0.753305
vt 1.000000 0.004455
vt 0.000000 0.004455
vt 0.500000 0.999968
vt 1.000000 0.753305
vt 1.000000 0.004455
vt 0.000000 0.004455
vt 0.000000 0.753305
vt 1.000000 0.753305
vt 1.000000 0.004455
vt 0.000000 0.004455
vt 0.000000 0.753305
vt 1.000000 0.753305
vt 1.000000 0.004455
vt 0.000000 0.753305
vt 0.000000 0.004455
vt 1.000000 0.753305
vt 1.000000 0.004455
vt 0.000000 0.753305
vt 0.000000 0.004455
vt 0.500000 0.999968
vt 1.000000 0.753305
vt 1.000000 0.004455
vt 0.000000 0.004455
vt 0.000000 0.753305
vt 1.000000 0.753305
vt 1.000000 0.004455
vt 0.000000 0.004455
vt 0.000000 0.753305
vt 1.000000 0.753305
vt 1.000000 0.004455
vt 0.000000 0.753305
vt 0.000000 0.004455
vt 1.000000 0.753305
vt 1.000000 0.004455
vt 0.000000 0.753305
vt 0.000000 0.004455
vt 0.500000 0.999968
vt 1.000000 0.753305
vt 1.000000 0.004455
vt 0.000000 0.004455
vt 0.000000 0.753305
vt 1.000000 0.753305
vt 1.000000 0.004455
vt 0.000000 0.004455
vt 0.000000 0.753305
vt 1.000000 0.753305
vt 1.000000 0.004455
vt 0.000000 0.753305
vt 0.000000 0.004455
vt 1.000000 0.753305
vt 1.000000 0.004455
vt 0.000000 0.753305
vt 0.000000 0.004455
vt 0.500000 0.999968
vt 1.000000 0.753305
vt 1.000000 0.004455
vt 0.000000 0.004455
vt 0.000000 0.753305
vt 1.000000 0.753305
vt 1.000000 0.004455
vt 0.000000 0.753305
vt 0.000000 0.004455
vt 1.000000 0.753305
vt 1.000000 0.004455
vt 0.000000 0.753305
vt 0.000000 0.004455
vt 1.000000 0.753305
vt 1.000000 0.004455
vt 0.000000 0.004455
vt 0.000000 0.753305
vt 0.500000 0.999968
vt 1.000000 0.753305
vt 0.000000 0.753305
vt 1.000000 0.004455
vt 0.000000 0.004455
vt 1.000000 0.753305
vt 0.000000 0.753305
vt 1.000000 0.004455
vt 0.000000 0.004455
vt 1.000000 0.753305
vt 0.000000 0.753305
vt 0.000000 0.004455
vt 1.000000 0.004455
vt 1.000000 0.753305
vt 0.000000 0.753305
vt 0.000000 0.004455
vt 1.000000 0.004455
vt 0.500000 0.999968
vt 1.000000 0.753305
vt 0.000000 0.753305
vt 0.000000 0.004455
vt 1.000000 0.004455
vt 1.000000 0.753305
vt 0.000000 0.753305
vt 0.000000 0.004455
vt 1.000000 0.004455
vt 1.000000 0.753305
vt 0.000000 0.753305
vt 0.000000 0.004455
vt 1.000000 0.004455
vt 1.000000 0.753305
vt 0.000000 0.753305
vt 1.000000 0.004455
vt 0.000000 0.004455
vt 0.500000 0.999968
vt 1.000000 0.753305
vt 0.000000 0.753305
vt 0.000000 0.004455
vt 1.000000 0.004455
vt 1.000000 0.753305
vt 0.000000 0.753305
vt 0.000000 0.004455
vt 1.000000 0.004455
vt 1.000000 0.753305
vt 0.000000 0.753305
vt 1.000000 0.004455
vt 0.000000 0.004455
vt 1.000000 0.753305
vt 0.000000 0.753305
vt 1.000000 0.004455
vt 0.000000 0.004455
vt 0.500000 0.999968
vn 0.697464 0.184271 0.692523
vn 0.697464 0.184271 0.692523
vn 0.697464 0.184271 0.692523
vn 0.697464 0.184271 0.692523
vn 0.697464 0.184271 0.692523
vn 0.697464 0.184271 0.692523
vn 0.716611 -0.174633 -0.675257
vn 0.716611 -0.174633 -0.675257
vn 0.716611 -0.174633 -0.675257
vn 0.716611 -0.174633 -0.675257
vn 0.716611 -0.174633 -0.675257
vn 0.716611 -0.174633 -0.675257
vn -0.697464 -0.184271 -0.692523
vn -0.697464 -0.184271 -0.692523
vn -0.697464 -0.184271 -0.692523
vn -0.697464 -0.184271 -0.692523
vn -0.697464 -0.184271 -0.692523
vn -0.697464 -0.184271 -0.692523
vn -0.716611 0.174633 0.675257
vn -0.716611 0.174633 0.675257
vn -0.716611 0.174633 0.675257
vn -0.716611 0.174633 0.675257
vn -0.716611 0.174633 0.675257
vn -0.716611 0.174633 0.675257
vn 0.622269 0.597379 0.505886
vn 0.622269 0.597379 0.505886
vn 0.622269 0.597379 0.505886
vn 0.639394 0.276365 -0.717494
vn 0.639394 0.276365 -0.717494
vn 0.639394 0.276365 -0.717494
vn -0.625393 0.267744 -0.732937
vn -0.625393 0.267744 -0.732937
vn -0.625393 0.267744 -0.732937
vn -0.642518 0.588758 0.490443
vn -0.642518 0.588758 0.490443
vn -0.642518 0.588758 0.490443
vn -0.578573 0.603113 0.549098
vn -0.578573 0.603113 0.549098
vn -0.578573 0.603113 0.549098
vn -0.578573 0.603112 0.549098
vn -0.578573 0.603112 0.549098
vn -0.578573 0.603112 0.549098
vn -0.691687 -0.006048 -0.722172
vn -0.691687 -0.006048 -0.722172
vn -0.691687 -0.006048 -0.722172
vn -0.691687 -0.006049 -0.722172
vn -0.691687 -0.006049 -0.722172
vn -0.691687 -0.006049 -0.722172
vn 0.578573 -0.603112 -0.549098
vn 0.578573 -0.603112 -0.549098
vn 0.578573 -0.603112 -0.549098
vn 0.578573 -0.603113 -0.549098
vn 0.578573 -0.603113 -0.549098
vn 0.578573 -0.603113 -0.549098
vn 0.691687 0.006049 0.722172
vn 0.691687 0.006049 0.722172
vn 0.691687 0.006049 0.722172
vn 0.691687 0.006049 0.722172
vn 0.691687 0.006049 0.722172
vn 0.691687 0.006049 0.722172
vn -0.324192 0.896153 0.303002
vn -0.324192 0.896153 0.303002
vn -0.324192 0.896153 0.303002
vn -0.425365 0.351302 -0.834057
vn -0.425365 0.351302 -0.834057
vn -0.425365 0.351302 -0.834057
vn 0.710791 -0.182727 -0.679255
vn 0.710791 -0.182727 -0.679255
vn 0.710791 -0.182727 -0.679255
vn 0.811963 0.362122 0.457803
vn 0.811963 0.362122 0.457803
vn 0.811963 0.362122 0.457803
vn -0.622887 0.237630 0.745348
vn -0.622887 0.237630 0.745348
vn -0.622887 0.237630 0.745348
vn -0.622887 0.237630 0.745348
vn -0.622887 0.237630 0.745348
vn -0.622887 0.237630 0.745348
vn -0.704257 0.244524 -0.666506
vn -0.704257 0.244524 -0.666506
vn -0.704257 0.244524 -0.666506
vn -0.704257 0.244525 -0.666506
vn -0.704257 0.244525 -0.666506
vn -0.704257 0.244525 -0.666506
vn 0.622887 -0.237629 -0.745348
vn 0.622887 -0.237629 -0.745348
vn 0.622887 -0.237629 -0.745348
vn 0.622887 -0.237629 -0.745348
vn 0.622887 -0.237629 -0.745348
vn 0.622887 -0.237629 -0.745348
vn 0.704256 -0.244524 0.666506
vn 0.704256 -0.244524 0.666506
vn 0.704256 -0.244524 0.666506
vn 0.704257 -0.244525 0.666506
vn 0.704257 -0.244525 0.666506
vn 0.704257 -0.244525 0.666506
vn -0.404790 0.632956 0.659933
vn -0.404790 0.632956 0.659933
vn -0.404790 0.632956 0.659933
vn -0.477569 0.639123 -0.602868
vn -0.477569 0.639123 -0.602868
vn -0.477569 0.639123 -0.602868
vn 0.709465 0.207871 -0.673386
vn 0.709465 0.207871 -0.673386
vn 0.709465 0.207871 -0.673386
vn 0.782244 0.201704 0.589415
vn 0.782244 0.201704 0.589415
vn 0.782244 0.201704 0.589415
vn -0.443401 0.566175 0.694868
vn -0.443401 0.566175 0.694868
vn -0.443401 0.566175 0.694868
vn -0.443401 0.566175 0.694867
vn -0.443401 0.566175 0.694867
vn -0.443401 0.566175 0.694867
vn -0.551725 0.438570 -0.709405
vn -0.551725 0.438570 -0.709405
vn -0.551725 0.438570 -0.709405
vn -0.551724 0.438569 -0.709406
vn -0.551724 0.438569 -0.709406
vn -0.551724 0.438569 -0.709406
vn 0.443402 -0.566175 -0.694867
vn 0.443402 -0.566175 -0.694867
vn 0.443402 -0.566175 -0.694867
vn 0.443401 -0.566175 -0.694868
vn 0.443401 -0.566175 -0.694868
vn 0.443401 -0.566175 -0.694868
vn 0.551724 -0.438570 0.709406
vn 0.551724 -0.438570 0.709406
vn 0.551724 -0.438570 0.709406
vn 0.551724 -0.438570 0.709406
vn 0.551724 -0.438570 0.709406
vn 0.551724 -0.438570 0.709406
vn -0.080681 0.818525 0.568777
vn -0.080681 0.818525 0.568777
vn -0.080681 0.818525 0.568777
vn -0.177569 0.704391 -0.687243
vn -0.177569 0.704391 -0.687243
vn -0.177569 0.704391 -0.687243
vn 0.712500 -0.194280 -0.674240
vn 0.712500 -0.194280 -0.674240
vn 0.712500 -0.194280 -0.674240
vn 0.809387 -0.080146 0.581781
vn 0.809387 -0.080146 0.581781
vn 0.809387 -0.080146 0.581781
vn 0.622887 0.237630 0.745348
vn 0.622887 0.237630 0.745348
vn 0.622887 0.237630 0.745348
vn 0.622888 0.237630 0.745348
vn 0.622888 0.237630 0.745348
vn 0.622888 0.237630 0.745348
vn 0.704256 0.244525 -0.666506
vn 0.704256 0.244525 -0.666506
vn 0.704256 0.244525 -0.666506
vn 0.704257 0.244525 -0.666506
vn 0.704257 0.244525 -0.666506
vn 0.704257 0.244525 -0.666506
vn -0.622887 -0.237629 -0.745348
vn -0.622887 -0.237629 -0.745348
vn -0.622887 -0.237629 -0.745348
vn -0.622887 -0.237629 -0.745348
vn -0.622887 -0.237629 -0.745348
vn -0.622887 -0.237629 -0.745348
vn -0.704256 -0.244524 0.666506
vn -0.704256 -0.244524 0.666506
vn -0.704256 -0.244524 0.666506
vn -0.704257 -0.244525 0.666506
vn -0.704257 -0.244525 0.666506
vn -0.704257 -0.244525 0.666506
vn 0.404790 0.632956 0.659933
vn 0.404790 0.632956 0.659933
vn 0.404790 0.632956 0.659933
vn 0.477569 0.639123 -0.602868
vn 0.477569 0.639123 -0.602868
vn 0.477569 0.639123 -0.602868
vn -0.709465 0.207871 -0.673387
vn -0.709465 0.207871 -0.673387
vn -0.709465 0.207871 -0.673387
vn -0.782244 0.201704 0.589415
vn -0.782244 0.201704 0.589415
vn -0.782244 0.201704 0.589415
vn 0.578573 0.603112 0.549098
vn 0.578573 0.603112 0.549098
vn 0.578573 0.603112 0.549098
vn 0.578572 0.603113 0.549099
vn 0.578572 0.603113 0.549099
vn 0.578572 0.603113 0.549099
vn 0.691687 -0.006049 -0.722172
vn 0.691687 -0.006049 -0.722172
vn 0.691687 -0.006049 -0.722172
vn 0.691687 -0.006049 -0.722172
vn 0.691687 -0.006049 -0.722172
vn 0.691687 -0.006049 -0.722172
vn -0.578573 -0.603112 -0.549098
vn -0.578573 -0.603112 -0.549098
vn -0.578573 -0.603112 -0.549098
vn -0.578573 -0.603112 -0.549098
vn -0.578573 -0.603112 -0.549098
vn -0.578573 -0.603112 -0.549098
vn -0.691687 0.006049 0.722172
vn -0.691687 0.006049 0.722172
vn -0.691687 0.006049 0.722172
vn -0.691687 0.006049 0.722172
vn -0.691687 0.006049 0.722172
vn -0.691687 0.006049 0.722172
vn 0.324192 0.896152 0.303002
vn 0.324192 0.896152 0.303002
vn 0.324192 0.896152 0.303002
vn 0.425365 0.351302 -0.834058
vn 0.425365 0.351302 -0.834058
vn 0.425365 0.351302 -0.834058
vn -0.710790 -0.182728 -0.679256
vn -0.710790 -0.182728 -0.679256
vn -0.710790 -0.182728 -0.679256
vn -0.811962 0.362123 0.457804
vn -0.811962 0.362123 0.457804
vn -0.811962 0.362123 0.457804
vn 0.443401 0.566175 0.694867
vn 0.443401 0.566175 0.694867
vn 0.443401 0.566175 0.694867
vn 0.443401 0.566175 0.694867
vn 0.443401 0.566175 0.694867
vn 0.443401 0.566175 0.694867
vn 0.551724 0.438569 -0.709406
vn 0.551724 0.438569 -0.709406
vn 0.551724 0.438569 -0.709406
vn 0.551725 0.438570 -0.709405
vn 0.551725 0.438570 -0.709405
vn 0.551725 0.438570 -0.709405
vn -0.443402 -0.566175 -0.694867
vn -0.443402 -0.566175 -0.694867
vn -0.443402 -0.566175 -0.694867
vn -0.443401 -0.566175 -0.694868
vn -0.443401 -0.566175 -0.694868
vn -0.443401 -0.566175 -0.694868
vn -0.551725 -0.438570 0.709406
vn -0.551725 -0.438570 0.709406
vn -0.551725 -0.438570 0.709406
vn -0.551724 -0.438570 0.709406
vn -0.551724 -0.438570 0.709406
vn -0.551724 -0.438570 0.709406
vn 0.080681 0.818525 0.568777
vn 0.080681 0.818525 0.568777
vn 0.080681 0.818525 0.568777
vn 0.177569 0.704391 -0.687243
vn 0.177569 0.704391 -0.687243
vn 0.177569 0.704391 -0.687243
vn -0.712500 -0.194280 -0.674240
vn -0.712500 -0.194280 -0.674240
vn -0.712500 -0.194280 -0.674240
vn -0.809388 -0.080146 0.581780
vn -0.809388 -0.080146 0.581780
vn -0.809388 -0.080146 0.581780
vn 0.503531 -0.096648 0.858555
vn 0.503531 -0.096648 0.858555
vn 0.503531 -0.096648 0.858555
vn 0.503531 -0.096647 0.858554
vn 0.503531 -0.096647 0.858554
vn 0.503531 -0.096647 0.858554
vn 0.690202 0.642732 -0.332441
vn 0.690202 0.642732 -0.332441
vn 0.690202 0.642732 -0.332441
vn 0.690200 0.642733 -0.332443
vn 0.690200 0.642733 -0.332443
vn 0.690200 0.642733 -0.332443
vn -0.503532 0.096647 -0.858554
vn -0.503532 0.096647 -0.858554
vn -0.503532 0.096647 -0.858554
vn -0.503531 0.096648 -0.858555
vn -0.503531 0.096648 -0.858555
vn -0.503531 0.096648 -0.858555
vn -0.690201 -0.642733 0.332442
vn -0.690201 -0.642733 0.332442
vn -0.690201 -0.642733 0.332442
vn -0.690201 -0.642732 0.332442
vn -0.690201 -0.642732 0.332442
vn -0.690201 -0.642732 0.332442
vn 0.217959 0.253425 0.942481
vn 0.217959 0.253425 0.942481
vn 0.217959 0.253425 0.942481
vn 0.384922 0.914746 -0.122778
vn 0.384922 0.914746 -0.122778
vn 0.384922 0.914746 -0.122778
vn -0.682785 0.426313 -0.593348
vn -0.682785 0.426313 -0.593348
vn -0.682785 0.426313 -0.593348
vn -0.849747 -0.235008 0.471912
vn -0.849747 -0.235008 0.471912
vn -0.849747 -0.235008 0.471912
vn -0.344446 -0.395056 0.851638
vn -0.344446 -0.395056 0.851638
vn -0.344446 -0.395056 0.851638
vn -0.344447 -0.395056 0.851638
vn -0.344447 -0.395056 0.851638
vn -0.344447 -0.395056 0.851638
vn -0.938579 0.124962 -0.321643
vn -0.938579 0.124962 -0.321643
vn -0.938579 0.124962 -0.321643
vn -0.938579 0.124963 -0.321644
vn -0.938579 0.124963 -0.321644
vn -0.938579 0.124963 -0.321644
vn 0.344447 0.395057 -0.851638
vn 0.344447 0.395057 -0.851638
vn 0.344447 0.395057 -0.851638
vn 0.344447 0.395057 -0.851638
vn 0.344447 0.395057 -0.851638
vn 0.344447 0.395057 -0.851638
vn 0.938579 -0.124962 0.321643
vn 0.938579 -0.124962 0.321643
vn 0.938579 -0.124962 0.321643
vn 0.938579 -0.124963 0.321644
vn 0.938579 -0.124963 0.321644
vn 0.938579 -0.124963 0.321644
vn -0.317315 0.053668 0.946800
vn -0.317315 0.053668 0.946800
vn -0.317315 0.053668 0.946800
vn -0.848723 0.518787 -0.102613
vn -0.848723 0.518787 -0.102613
vn -0.848723 0.518787 -0.102613
vn 0.298850 0.760366 -0.576656
vn 0.298850 0.760366 -0.576656
vn 0.298850 0.760366 -0.576656
vn 0.830258 0.295247 0.472759
vn 0.830258 0.295247 0.472759
vn 0.830258 0.295247 0.472759
vn -0.503531 -0.096648 0.858555
vn -0.503531 -0.096648 0.858555
vn -0.503531 -0.096648 0.858555
vn -0.503531 -0.096648 0.858555
vn -0.503531 -0.096648 0.858555
vn -0.503531 -0.096648 0.858555
vn -0.690201 0.642733 -0.332442
vn -0.690201 0.642733 -0.332442
vn -0.690201 0.642733 -0.332442
vn -0.690201 0.642732 -0.332442
vn -0.690201 0.642732 -0.332442
vn -0.690201 0.642732 -0.332442
vn 0.503532 0.096646 -0.858554
vn 0.503532 0.096646 -0.858554
vn 0.503532 0.096646 -0.858554
vn 0.503531 0.096648 -0.858555
vn 0.503531 0.096648 -0.858555
vn 0.503531 0.096648 -0.858555
vn 0.690201 -0.642733 0.332441
vn 0.690201 -0.642733 0.332441
vn 0.690201 -0.642733 0.332441
vn 0.690201 -0.642732 0.332442
vn 0.690201 -0.642732 0.332442
vn 0.690201 -0.642732 0.332442
vn -0.217959 0.253425 0.942481
vn -0.217959 0.253425 0.942481
vn -0.217959 0.253425 0.942481
vn -0.384922 0.914746 -0.122779
vn -0.384922 0.914746 -0.122779
vn -0.384922 0.914746 -0.122779
vn 0.682786 0.426312 -0.593347
vn 0.682786 0.426312 -0.593347
vn 0.682786 0.426312 -0.593347
vn 0.849748 -0.235008 0.471911
vn 0.849748 -0.235008 0.471911
vn 0.849748 -0.235008 0.471911
vn -0.868239 0.345593 0.355988
vn -0.868239 0.345593 0.355988
vn -0.868239 0.345593 0.355988
vn -0.868239 0.345593 0.355988
vn -0.868239 0.345593 0.355988
vn -0.868239 0.345593 0.355988
vn -0.495660 -0.635975 -0.591487
vn -0.495660 -0.635975 -0.591487
vn -0.495660 -0.635975 -0.591487
vn -0.495659 -0.635976 -0.591487
vn -0.495659 -0.635976 -0.591487
vn -0.495659 -0.635976 -0.591487
vn 0.868239 -0.345593 -0.355988
vn 0.868239 -0.345593 -0.355988
vn 0.868239 -0.345593 -0.355988
vn 0.868238 -0.345594 -0.355988
vn 0.868238 -0.345594 -0.355988
vn 0.868238 -0.345594 -0.355988
vn 0.495658 0.635976 0.591488
vn 0.495658 0.635976 0.591488
vn 0.495658 0.635976 0.591488
vn 0.495659 0.635975 0.591488
vn 0.495659 0.635975 0.591488
vn 0.495659 0.635975 0.591488
vn -0.786409 0.617685 -0.005144
vn -0.786409 0.617685 -0.005144
vn -0.786409 0.617685 -0.005144
vn -0.453164 -0.260256 -0.852590
vn -0.453164 -0.260256 -0.852590
vn -0.453164 -0.260256 -0.852590
vn 0.766744 -0.000530 -0.641952
vn 0.766744 -0.000530 -0.641952
vn 0.766744 -0.000530 -0.641952
vn 0.433498 0.877412 0.205496
vn 0.433498 0.877412 0.205496
vn 0.433498 0.877412 0.205496
s off
g ___Default
usemtl ___Default1
f 6/1/1 1/3/2 2/2/3
f 1/3/4 6/1/5 5/4/6
f 8/5/7 2/7/8 4/6/9
f 2/7/10 8/5/11 6/8/12
f 7/9/13 4/11/14 3/10/15
f 4/11/16 7/9/17 8/12/18
f 5/13/19 3/15/20 1/14/21
f 3/15/22 5/13/23 7/16/24
f 9/17/25 5/4/26 6/1/27
f 9/17/28 6/8/29 8/5/30
f 9/17/31 8/12/32 7/9/33
f 9/17/34 7/16/35 5/13/36
f 15/18/37 10/20/38 14/19/39
f 10/20/40 15/18/41 11/21/42
f 17/22/43 11/24/44 15/23/45
f 11/24/46 17/22/47 13/25/48
f 16/26/49 12/28/50 17/27/51
f 13/29/52 17/27/53 12/28/54
f 14/30/55 10/32/56 16/31/57
f 12/33/58 16/31/59 10/32/60
f 15/18/61 14/19/62 18/34/63
f 17/22/64 15/23/65 18/34/66
f 16/26/67 17/27/68 18/34/69
f 14/30/70 16/31/71 18/34/72
f 24/35/73 20/37/74 23/36/75
f 19/38/76 23/36/77 20/37/78
f 26/39/79 20/41/80 24/40/81
f 20/41/82 26/39/83 22/42/84
f 25/43/85 22/45/86 26/44/87
f 22/45/88 25/43/89 21/46/90
f 23/47/91 19/49/92 25/48/93
f 21/50/94 25/48/95 19/49/96
f 24/35/97 23/36/98 27/51/99
f 26/39/100 24/40/101 27/51/102
f 25/43/103 26/44/104 27/51/105
f 23/47/106 25/48/107 27/51/108
f 33/52/109 28/54/110 32/53/111
f 28/54/112 33/52/113 29/55/114
f 35/56/115 31/58/116 33/57/117
f 29/59/118 33/57/119 31/58/120
f 34/60/121 30/62/122 35/61/123
f 31/63/124 35/61/125 30/62/126
f 32/64/127 28/66/128 34/65/129
f 30/67/130 34/65/131 28/66/132
f 33/52/133 32/53/134 36/68/135
f 35/56/136 33/57/137 36/68/138
f 34/60/139 35/61/140 36/68/141
f 32/64/142 34/65/143 36/68/144
f 42/69/145 37/71/146 38/70/147
f 37/71/148 42/69/149 41/72/150
f 44/73/151 38/75/152 40/74/153
f 38/75/154 44/73/155 42/76/156
f 43/77/157 44/79/158 39/78/159
f 40/80/160 39/78/161 44/79/162
f 41/81/163 43/83/164 37/82/165
f 39/84/166 37/82/167 43/83/168
f 45/85/169 41/72/170 42/69/171
f 45/85/172 42/76/173 44/73/174
f 45/85/175 44/79/176 43/77/177
f 45/85/178 43/83/179 41/81/180
f 51/86/181 46/88/182 47/87/183
f 46/88/184 51/86/185 50/89/186
f 53/90/187 47/92/188 49/91/189
f 47/92/190 53/90/191 51/93/192
f 52/94/193 53/96/194 48/95/195
f 49/97/196 48/95/197 53/96/198
f 50/98/199 52/100/200 46/99/201
f 48/101/202 46/99/203 52/100/204
f 54/102/205 50/89/206 51/86/207
f 54/102/208 51/93/209 53/90/210
f 54/102/211 53/96/212 52/94/213
f 54/102/214 52/100/215 50/98/216
f 60/103/217 55/105/218 56/104/219
f 55/105/220 60/103/221 59/106/222
f 62/107/223 56/109/224 58/108/225
f 56/109/226 62/107/227 60/110/228
f 61/111/229 62/113/230 57/112/231
f 58/114/232 57/112/233 62/113/234
f 59/115/235 61/117/236 55/116/237
f 57/118/238 55/116/239 61/117/240
f 63/119/241 59/106/242 60/103/243
f 63/119/244 60/110/245 62/107/246
f 63/119/247 62/113/248 61/111/249
f 63/119/250 61/117/251 59/115/252
f 69/120/253 64/122/254 65/121/255
f 64/122/256 69/120/257 68/123/258
f 71/124/259 69/126/260 67/125/261
f 65/127/262 67/125/263 69/126/264
f 70/128/265 71/130/266 66/129/267
f 67/131/268 66/129/269 71/130/270
f 68/132/271 66/134/272 64/133/273
f 66/134/274 68/132/275 70/135/276
f 72/136/277 68/123/278 69/120/279
f 72/136/280 69/126/281 71/124/282
f 72/136/283 71/130/284 70/128/285
f 72/136/286 70/135/287 68/132/288
f 78/137/289 74/139/290 77/138/291
f 73/140/292 77/138/293 74/139/294
f 80/141/295 76/143/296 78/142/297
f 74/144/298 78/142/299 76/143/300
f 79/145/301 76/147/302 80/146/303
f 76/147/304 79/145/305 75/148/306
f 77/149/307 75/151/308 79/150/309
f 75/151/310 77/149/311 73/152/312
f 78/137/313 77/138/314 81/153/315
f 80/141/316 78/142/317 81/153/318
f 79/145/319 80/146/320 81/153/321
f 77/149/322 79/150/323 81/153/324
f 87/154/325 82/156/326 86/155/327
f 82/156/328 87/154/329 83/157/330
f 89/158/331 83/160/332 87/159/333
f 83/160/334 89/158/335 85/161/336
f 88/162/337 85/164/338 89/163/339
f 85/164/340 88/162/341 84/165/342
f 86/166/343 82/168/344 88/167/345
f 84/169/346 88/167/347 82/168/348
f 87/154/349 86/155/350 90/170/351
f 89/158/352 87/159/353 90/170/354
f 88/162/355 89/163/356 90/170/357
f 86/166/358 88/167/359 90/170/360
f 96/171/361 91/173/362 95/172/363
f 91/173/364 96/171/365 92/174/366
f 98/175/367 92/177/368 96/176/369
f 92/177/370 98/175/371 94/178/372
f 97/179/373 93/181/374 98/180/375
f 94/182/376 98/180/377 93/181/378
f 95/183/379 91/185/380 97/184/381
f 93/186/382 97/184/383 91/185/384
f 96/171/385 95/172/386 99/187/387
f 98/175/388 96/176/389 99/187/390
f 97/179/391 98/180/392 99/187/393
f 95/183/394 97/184/395 99/187/396
